<?xml version="1.0" encoding="UTF-8" standalone="no"?>
<!DOCTYPE svg PUBLIC "-//W3C//DTD SVG 1.1//EN" "http://www.w3.org/Graphics/SVG/1.1/DTD/svg11.dtd">
<svg width="100%" height="100%" viewBox="0 0 24 24" version="1.1" xmlns="http://www.w3.org/2000/svg" xmlns:xlink="http://www.w3.org/1999/xlink" xml:space="preserve" xmlns:serif="http://www.serif.com/" style="fill-rule:evenodd;clip-rule:evenodd;stroke-linejoin:round;stroke-miterlimit:2;">
    <path d="M13,0L24,0L24,12L20.45,12C19.517,12 19.094,12.575 19.094,13.109C19.094,13.441 19.249,13.781 19.532,14.062C19.826,14.346 20,14.45 20,14.848C20,15.318 19.466,16 18.5,16C17.534,16 17,15.318 17,14.848C17,14.451 17.174,14.347 17.469,14.063C17.751,13.782 17.907,13.442 17.907,13.11C17.907,12.576 17.483,12.001 16.551,12.001L13,12.001L13,7.45C13,6.915 13.137,7.01 13.454,7.341C13.699,7.604 14.07,8 14.848,8C15.887,8 17,6.996 17,5.5C17,4.004 15.887,3 14.848,3C14.071,3 13.7,3.396 13.454,3.659C13.137,3.992 13,4.083 13,3.55L13,-0ZM4.55,12C5.084,12 4.991,11.863 4.658,11.546C4.396,11.301 4,10.93 4,10.152C4,9.113 5.004,8 6.5,8C7.996,8 9,9.113 9,10.152C9,10.929 8.604,11.3 8.342,11.546C8.011,11.861 7.915,12 8.45,12L12,12L12,7.45C12,6.518 12.575,6.093 13.109,6.093C13.441,6.093 13.781,6.249 14.062,6.531C14.347,6.827 14.451,7 14.848,7C15.318,7 16,6.466 16,5.5C16,4.534 15.318,4 14.848,4C14.452,4 14.347,4.173 14.063,4.469C13.782,4.751 13.442,4.907 13.11,4.907C12.575,4.907 12,4.482 12,3.55L12,0L0,0L0,12L4.55,12ZM12,20.45C12,19.917 11.863,20.008 11.546,20.341C11.301,20.604 10.93,21 10.152,21C9.113,21 8,19.996 8,18.5C8,17.004 9.113,16 10.152,16C10.929,16 11.3,16.396 11.546,16.659C11.863,16.99 12,17.084 12,16.55L12,13L8.45,13C7.517,13 7.094,12.425 7.094,11.891C7.094,11.559 7.249,11.219 7.532,10.938C7.826,10.654 8,10.55 8,10.152C8,9.682 7.466,9 6.5,9C5.534,9 5,9.682 5,10.152C5,10.549 5.174,10.653 5.469,10.937C5.751,11.218 5.907,11.558 5.907,11.89C5.906,12.425 5.482,13 4.55,13L-0,13L-0,24L12,24L12,20.45ZM20.45,13C19.916,13 20.009,13.137 20.342,13.454C20.604,13.699 21,14.07 21,14.848C21,15.887 19.996,17 18.5,17C17.004,17 16,15.887 16,14.848C16,14.071 16.396,13.7 16.658,13.454C16.989,13.139 17.085,13 16.55,13L13,13L13,16.55C13,17.482 12.425,17.907 11.891,17.907C11.559,17.907 11.219,17.751 10.938,17.469C10.653,17.173 10.549,17 10.152,17C9.682,17 9,17.534 9,18.5C9,19.466 9.682,20 10.152,20C10.548,20 10.653,19.827 10.937,19.531C11.218,19.249 11.558,19.093 11.89,19.093C12.424,19.093 12.999,19.518 12.999,20.45L12.999,24L23.999,24L23.999,13L20.45,13Z" style="fill:white;fill-rule:nonzero;"/>
</svg>
