<?xml version="1.0" encoding="UTF-8" standalone="no"?>
<svg
   width="100%"
   height="100%"
   viewBox="0 0 24 24"
   version="1.1"
   xml:space="preserve"
   style="fill-rule:evenodd;clip-rule:evenodd;stroke-linejoin:round;stroke-miterlimit:2;"
   id="svg4"
   sodipodi:docname="logo.svg"
   inkscape:version="1.2.2 (b0a8486541, 2022-12-01)"
   xmlns:inkscape="http://www.inkscape.org/namespaces/inkscape"
   xmlns:sodipodi="http://sodipodi.sourceforge.net/DTD/sodipodi-0.dtd"
   xmlns="http://www.w3.org/2000/svg"
   xmlns:svg="http://www.w3.org/2000/svg"><defs
   id="defs8" /><sodipodi:namedview
   id="namedview6"
   pagecolor="#ffffff"
   bordercolor="#000000"
   borderopacity="0.25"
   inkscape:showpageshadow="2"
   inkscape:pageopacity="0.0"
   inkscape:pagecheckerboard="0"
   inkscape:deskcolor="#d1d1d1"
   showgrid="false"
   inkscape:zoom="32"
   inkscape:cx="16.953125"
   inkscape:cy="11.109375"
   inkscape:window-width="1920"
   inkscape:window-height="1038"
   inkscape:window-x="0"
   inkscape:window-y="0"
   inkscape:window-maximized="1"
   inkscape:current-layer="svg4" />
    
<rect
   style="clip-rule:evenodd;fill:#ffffff;fill-rule:evenodd;stroke-width:1.04839;stroke-linejoin:round;stroke-miterlimit:2"
   id="rect456"
   width="24"
   height="24"
   x="0"
   y="0"
   ry="6.474113" /><g
   id="g35"
   transform="matrix(0.04762809,0,0,0.04762809,-0.37926441,0.20419019)"><title
     id="title10">Layer 1</title><!--  <rect fill="#e5e5e5" stroke-width="4" x="2" y="2" width="496" height="496" id="svg_42" stroke="#343434"/>--><!--  <path fill="#fff" stroke-width="4"  stroke="#343434" d="M22,2 h456 a20,20 0 0 1 20,20 v456 a20,20 0 0 1 -20,20 h-456 a20,20 0 0 1 -20,-20 v-456 a20,20 0 0 1 20,-20 z" />--><line
     fill="none"
     stroke="#adeee3"
     x1="425"
     y1="250"
     x2="275"
     y2="50"
     id="svg_41"
     stroke-width="10" /><line
     fill="none"
     stroke="#adeee3"
     x1="275"
     y1="50"
     x2="325"
     y2="250"
     id="svg_40"
     stroke-width="10" /><line
     fill="none"
     stroke="#adeee3"
     x1="275"
     y1="50"
     x2="225"
     y2="150"
     id="svg_38"
     stroke-width="10" /><line
     fill="none"
     stroke="#adeee3"
     x1="125"
     y1="150"
     x2="275"
     y2="50"
     id="svg_35"
     stroke-width="10" /><circle
     fill="#adeee3"
     stroke="#adeee3"
     stroke-width="0"
     cx="275"
     cy="50"
     id="svg_33"
     r="20" /><circle
     fill="#6290c3"
     stroke="#6290c3"
     stroke-width="0"
     cx="75"
     cy="350"
     id="svg_12"
     r="20" /><circle
     fill="#6290c3"
     stroke="#6290c3"
     stroke-width="0"
     cx="175"
     cy="350"
     id="svg_13"
     r="20" /><circle
     fill="#6290c3"
     stroke="#6290c3"
     stroke-width="0"
     cx="275"
     cy="350"
     id="svg_14"
     r="20" /><circle
     fill="#6290c3"
     stroke="#6290c3"
     stroke-width="0"
     cx="125"
     cy="150"
     id="svg_15"
     r="20" /><circle
     fill="#6290c3"
     stroke="#6290c3"
     stroke-width="0"
     cx="225"
     cy="150"
     id="svg_16"
     r="20" /><line
     fill="none"
     stroke="#6290c3"
     x1="75"
     y1="350"
     x2="125"
     y2="150"
     id="svg_17"
     stroke-width="10" /><line
     fill="none"
     stroke="#6290c3"
     stroke-width="10"
     x1="125"
     y1="150"
     x2="175"
     y2="350"
     id="svg_18" /><line
     fill="none"
     stroke="#6290c3"
     stroke-width="10"
     x1="225"
     y1="150"
     x2="175"
     y2="350"
     id="svg_19" /><line
     fill="none"
     stroke="#6290c3"
     stroke-width="10"
     x1="275"
     y1="350"
     x2="225"
     y2="150"
     id="svg_20" /><circle
     fill="#343434"
     stroke="#343434"
     stroke-width="0"
     cx="375"
     cy="350"
     id="svg_23"
     r="20" /><circle
     fill="#343434"
     stroke="#343434"
     stroke-width="0"
     cx="325"
     cy="250"
     id="svg_24"
     r="20" /><circle
     fill="#343434"
     stroke="#343434"
     stroke-width="0"
     cx="425"
     cy="250"
     id="svg_25"
     r="20" /><circle
     fill="#343434"
     stroke="#343434"
     stroke-width="0"
     cx="325"
     cy="450"
     id="svg_26"
     r="20" /><circle
     fill="#343434"
     stroke="#343434"
     stroke-width="0"
     cx="425"
     cy="450"
     id="svg_27"
     r="20" /><line
     fill="none"
     stroke="#343434"
     x1="325"
     y1="250"
     x2="375"
     y2="350"
     id="svg_28"
     stroke-width="10" /><line
     fill="none"
     stroke="#343434"
     x1="425"
     y1="250"
     x2="375"
     y2="350"
     id="svg_29"
     stroke-width="10" /><line
     fill="none"
     stroke="#343434"
     x1="325"
     y1="450"
     x2="375"
     y2="350"
     id="svg_30"
     stroke-width="10" /><line
     fill="none"
     stroke="#343434"
     x1="425"
     y1="450"
     x2="375"
     y2="350"
     id="svg_31"
     stroke-width="10" /></g></svg>
